<?xml version="1.0" standalone="no"?>
<!DOCTYPE svg PUBLIC "-//W3C//DTD SVG 20010904//EN"
 "http://www.w3.org/TR/2001/REC-SVG-20010904/DTD/svg10.dtd">
<svg version="1.0" xmlns="http://www.w3.org/2000/svg"
 width="245.000000pt" height="130.000000pt" viewBox="0 0 245.000000 130.000000"
 preserveAspectRatio="xMidYMid meet">

<g transform="translate(0.000000,130.000000) scale(0.100000,-0.100000)"
fill="#000000" stroke="none">
<path d="M1895 1285 c-77 -7 -169 -20 -205 -28 -36 -9 -100 -23 -143 -33 -95
-20 -205 -73 -245 -118 l-29 -34 -47 42 c-26 22 -63 54 -82 70 l-34 28 -48
-20 c-26 -10 -46 -24 -45 -31 2 -6 -6 -11 -17 -11 -11 0 -53 -22 -93 -48 -93
-62 -344 -247 -379 -280 -27 -24 -28 -25 -28 -5 0 29 20 83 42 115 10 15 24
41 30 59 6 18 19 40 30 51 22 22 23 57 3 105 -20 47 -43 73 -66 73 -10 0 -23
8 -28 19 -6 10 -23 21 -38 24 -16 3 -41 9 -56 13 -39 9 -69 -21 -118 -118 -21
-42 -43 -79 -48 -82 -5 -3 -15 -30 -21 -58 -7 -29 -44 -135 -82 -236 -67 -180
-108 -320 -108 -374 0 -16 -4 -28 -9 -28 -24 0 -30 -139 -6 -152 7 -5 11 -16
9 -25 -7 -27 40 -130 68 -153 52 -40 72 -42 121 -9 46 30 85 77 177 212 48 71
122 147 141 147 5 0 34 -25 66 -56 70 -67 197 -154 226 -154 11 0 28 -6 36
-14 31 -26 117 -48 216 -53 88 -5 105 -3 140 15 74 38 125 107 125 169 0 24
-49 78 -96 106 -8 4 -82 9 -166 10 -144 2 -156 4 -213 30 -68 32 -108 66 -126
108 -10 25 -9 32 6 49 10 11 22 20 27 20 6 0 44 30 86 66 43 36 115 88 162
116 141 85 210 137 227 174 20 40 26 42 41 10 16 -36 72 -96 115 -123 32 -20
47 -24 81 -19 34 6 44 13 56 39 8 18 23 33 33 35 22 4 23 -39 1 -99 -8 -24
-19 -62 -24 -84 -19 -93 -62 -242 -76 -263 -9 -13 -13 -30 -10 -37 3 -8 1 -17
-4 -20 -11 -7 -45 -115 -42 -137 1 -9 -5 -29 -13 -45 -23 -44 -19 -66 27 -143
5 -8 11 -23 14 -33 4 -9 10 -17 14 -17 4 0 18 -10 32 -23 32 -30 90 -26 116 7
l16 23 54 -29 c56 -29 92 -36 92 -17 0 8 4 8 13 1 16 -13 107 1 139 22 13 8
46 20 73 26 73 16 169 54 260 104 62 33 92 58 132 107 51 61 53 66 47 109 -15
102 -59 169 -174 260 -36 29 -68 58 -72 65 -5 8 20 43 73 100 118 127 142 198
100 291 -17 38 -40 59 -165 156 -17 12 -46 24 -65 25 -20 1 -49 6 -64 12 -16
6 -31 10 -35 10 -4 -1 -70 -7 -147 -14z m119 -303 c-39 -37 -94 -80 -123 -95
l-52 -29 -37 34 c-20 18 -50 43 -67 55 l-30 21 50 22 c65 29 205 59 275 59
l55 0 -71 -67z m121 -433 c72 -24 80 -38 38 -72 -14 -12 -38 -34 -53 -49 -45
-45 -376 -175 -396 -155 -8 7 64 228 80 243 15 16 170 52 223 53 24 1 72 -9
108 -20z"/>
</g>
</svg>
