<?xml version="1.0" standalone="no"?>
<!DOCTYPE svg PUBLIC "-//W3C//DTD SVG 20010904//EN"
 "http://www.w3.org/TR/2001/REC-SVG-20010904/DTD/svg10.dtd">
<svg version="1.0" xmlns="http://www.w3.org/2000/svg"
 width="1308.000000pt" height="1308.000000pt" viewBox="0 0 1308.000000 1308.000000"
 preserveAspectRatio="xMidYMid meet">
<metadata>
Created by potrace 1.14, written by Peter Selinger 2001-2017
</metadata>
<g transform="translate(0.000000,1308.000000) scale(0.100000,-0.100000)"
fill="#000000" stroke="none">
<path d="M10888 10005 c-2 -2 -32 -6 -68 -10 -36 -3 -81 -8 -100 -10 -35 -4
-135 -13 -220 -21 -119 -9 -178 -15 -215 -19 -22 -2 -74 -7 -115 -10 -41 -4
-91 -9 -110 -11 -19 -2 -60 -6 -90 -9 -30 -3 -71 -7 -90 -10 -33 -4 -85 -10
-177 -20 -87 -10 -119 -14 -148 -19 -16 -2 -55 -8 -85 -11 -30 -4 -64 -9 -75
-11 -11 -3 -38 -7 -60 -10 -22 -2 -51 -7 -65 -9 -56 -9 -216 -37 -225 -39 -5
-2 -21 -6 -35 -9 -69 -18 -207 -50 -220 -52 -8 -1 -31 -5 -50 -10 -19 -5 -37
-9 -40 -10 -3 -1 -18 -4 -35 -8 -51 -12 -79 -19 -105 -24 -14 -2 -32 -7 -40
-10 -8 -3 -22 -7 -30 -8 -31 -5 -82 -16 -147 -31 -38 -9 -75 -17 -83 -19 -44
-9 -193 -49 -250 -66 -36 -11 -73 -22 -82 -24 -9 -2 -26 -9 -37 -15 -12 -6
-21 -8 -21 -4 0 3 -6 2 -12 -3 -7 -5 -42 -20 -78 -32 -36 -13 -78 -29 -95 -36
-16 -8 -52 -23 -80 -35 -86 -38 -307 -150 -339 -172 -6 -4 -49 -33 -96 -64
-119 -79 -179 -133 -273 -243 -44 -53 -84 -100 -88 -105 -10 -11 -40 8 -94 59
-22 20 -67 60 -99 88 -32 29 -68 61 -80 72 -12 11 -61 54 -111 95 -49 41 -103
87 -120 101 -67 59 -134 116 -180 154 -26 22 -58 49 -70 60 -13 11 -38 31 -55
45 -17 14 -41 33 -52 43 -12 9 -22 17 -23 17 -2 0 -79 -32 -120 -50 -37 -17
-110 -47 -145 -61 -125 -49 -227 -122 -232 -168 -3 -30 -32 -46 -97 -55 -86
-11 -350 -157 -615 -339 -188 -129 -191 -131 -194 -139 -2 -5 -10 -8 -17 -8
-7 0 -15 -4 -17 -8 -1 -5 -25 -23 -53 -42 -27 -19 -54 -38 -60 -42 -15 -12
-111 -81 -135 -98 -13 -8 -28 -19 -34 -25 -7 -5 -19 -14 -28 -20 -27 -17 -183
-129 -188 -135 -3 -3 -21 -17 -40 -30 -19 -13 -37 -27 -40 -30 -3 -3 -22 -16
-42 -30 -21 -14 -38 -28 -38 -32 0 -5 -5 -8 -10 -8 -6 0 -34 -18 -63 -40 -29
-22 -56 -44 -62 -48 -5 -4 -26 -19 -45 -32 -19 -14 -42 -30 -50 -37 -8 -6
-118 -89 -245 -184 -126 -95 -253 -191 -281 -213 -28 -23 -68 -54 -90 -71 -71
-55 -189 -157 -192 -166 -2 -5 -8 -9 -12 -9 -5 0 -22 -12 -37 -26 -48 -44 -62
-48 -69 -18 -6 25 -1 125 10 174 3 14 8 34 10 45 2 11 14 49 26 85 21 64 27
83 32 98 6 24 102 208 109 210 5 2 9 10 9 17 0 7 10 26 23 42 13 15 36 54 53
85 16 32 32 58 37 58 4 0 7 7 7 15 0 8 8 29 18 47 10 18 27 58 38 88 37 108
122 253 178 305 23 22 52 72 65 112 14 42 22 169 13 187 -3 5 -6 24 -8 42 -7
81 -126 363 -176 418 -10 11 -18 23 -18 28 0 11 -80 91 -115 115 -32 21 -69
33 -122 38 -42 5 -104 47 -128 87 -24 41 -29 47 -85 85 -46 30 -120 59 -175
67 -16 3 -39 7 -50 9 -11 3 -69 17 -130 32 -132 32 -191 30 -264 -10 -28 -16
-70 -48 -93 -73 -24 -24 -51 -51 -61 -60 -9 -9 -17 -22 -17 -28 0 -7 -3 -14
-7 -16 -13 -5 -63 -76 -63 -87 0 -6 -4 -11 -8 -11 -5 0 -16 -15 -25 -32 -9
-18 -30 -55 -47 -83 -16 -27 -57 -104 -91 -170 -34 -66 -74 -142 -89 -170 -15
-27 -42 -77 -60 -110 -18 -33 -46 -79 -61 -103 -16 -24 -29 -46 -29 -51 0 -4
-12 -18 -26 -32 -21 -19 -74 -104 -65 -104 2 0 -4 -19 -20 -65 -8 -25 -58
-211 -64 -241 -2 -8 -10 -32 -19 -52 -8 -21 -15 -41 -16 -45 -2 -21 -134 -408
-195 -572 -9 -25 -18 -49 -19 -55 -2 -5 -6 -17 -9 -25 -3 -8 -22 -60 -42 -115
-46 -125 -129 -349 -162 -435 -14 -36 -27 -72 -29 -80 -2 -8 -17 -53 -34 -100
-28 -74 -193 -552 -199 -572 -2 -10 -6 -24 -27 -88 -10 -30 -19 -59 -21 -65
-1 -5 -34 -119 -72 -253 -39 -133 -72 -255 -75 -270 -2 -15 -5 -27 -6 -27 -2
0 -5 -15 -13 -58 -3 -15 -8 -35 -11 -45 -3 -9 -7 -33 -10 -52 -3 -19 -8 -46
-11 -60 -11 -55 -17 -109 -20 -180 -4 -103 -20 -159 -49 -170 -42 -16 -65 -61
-92 -185 -21 -92 -25 -369 -8 -461 21 -112 24 -119 65 -164 22 -24 41 -52 44
-64 11 -49 13 -76 6 -80 -9 -6 11 -151 22 -162 4 -4 7 -15 7 -24 0 -34 135
-351 152 -358 5 -2 8 -9 8 -16 0 -20 114 -189 153 -227 19 -19 62 -53 94 -74
32 -22 60 -42 63 -45 9 -9 95 -48 135 -61 58 -19 162 -12 191 12 8 6 14 8 14
5 0 -9 104 46 108 57 2 4 8 7 13 7 11 0 72 42 77 53 2 4 8 7 14 7 14 0 126 97
205 176 62 64 244 279 243 289 0 3 8 13 18 23 29 32 120 153 162 217 19 29
186 267 197 280 4 6 42 60 83 120 41 61 79 115 85 121 5 7 19 24 30 40 106
148 474 549 475 518 0 -5 5 -1 11 8 13 23 93 78 128 88 24 6 35 2 72 -27 62
-48 135 -111 188 -162 39 -37 210 -195 245 -226 33 -30 186 -155 218 -178 20
-15 42 -33 50 -40 7 -8 18 -16 24 -18 6 -2 26 -16 45 -32 60 -48 121 -92 259
-184 242 -161 387 -236 479 -248 78 -10 119 -27 208 -87 73 -49 177 -99 258
-124 117 -36 283 -77 365 -90 25 -3 54 -8 65 -10 11 -3 38 -7 60 -10 22 -2 51
-7 65 -9 24 -4 82 -10 205 -20 212 -18 505 -24 610 -12 33 4 86 15 117 26 56
19 209 89 218 100 3 3 38 29 79 56 108 73 109 74 186 151 85 86 107 111 162
191 47 67 119 211 127 255 2 15 7 31 9 36 8 11 19 90 22 150 3 61 -26 127 -97
220 -42 55 -150 167 -219 228 -47 41 -197 144 -212 145 -7 0 -19 2 -27 3 -91
18 -359 33 -715 41 -644 13 -743 18 -890 39 -79 12 -218 52 -263 76 -9 4 -39
18 -67 30 -145 64 -284 142 -402 226 -242 173 -404 455 -327 572 44 67 113
129 180 161 54 26 241 159 298 213 12 11 34 29 49 41 15 12 42 35 60 51 18 15
64 53 102 84 39 31 72 59 75 62 7 8 159 123 179 135 9 6 18 12 21 15 30 32
557 390 574 390 10 0 413 255 566 359 116 78 300 212 326 236 6 5 35 30 63 54
119 100 183 175 237 274 71 129 79 141 104 154 34 17 53 1 99 -90 91 -176 246
-367 422 -519 29 -26 70 -61 89 -77 19 -17 38 -31 42 -31 4 0 13 -6 20 -12 35
-33 168 -106 230 -127 95 -33 272 -21 395 25 60 23 112 79 158 170 43 85 114
165 161 181 131 46 139 -173 19 -527 -19 -58 -36 -107 -36 -110 -1 -3 -3 -9
-5 -15 -4 -13 -37 -127 -40 -140 -2 -5 -5 -19 -8 -30 -2 -11 -14 -58 -26 -105
-12 -47 -24 -96 -26 -110 -3 -14 -7 -32 -9 -40 -2 -8 -7 -30 -10 -49 -3 -19
-8 -37 -10 -41 -2 -4 -7 -20 -10 -36 -4 -24 -15 -67 -59 -244 -2 -8 -16 -60
-30 -115 -15 -55 -28 -104 -29 -110 -2 -5 -6 -16 -10 -22 -5 -7 -6 -13 -4 -13
3 0 -2 -21 -10 -47 -8 -27 -27 -93 -43 -148 -40 -139 -123 -381 -150 -435 -12
-25 -30 -61 -40 -80 -23 -42 -43 -128 -34 -142 4 -6 8 -28 9 -48 2 -30 -4 -45
-26 -70 -16 -17 -29 -38 -29 -46 0 -8 -4 -14 -10 -14 -5 0 -10 -8 -10 -18 0
-10 -4 -22 -9 -27 -20 -21 -137 -397 -145 -464 -2 -15 -6 -33 -10 -39 -4 -6
-9 -52 -11 -103 -3 -50 -8 -95 -11 -100 -3 -5 -8 -21 -10 -35 -3 -15 -28 -76
-56 -137 -54 -119 -57 -132 -63 -217 -3 -51 14 -147 34 -195 25 -60 82 -171
130 -255 60 -104 110 -207 116 -238 9 -49 50 -99 100 -123 23 -11 78 -50 124
-88 83 -69 146 -108 189 -116 12 -2 26 -6 31 -9 14 -9 141 -10 191 -2 60 10
156 58 203 100 20 19 37 37 37 40 0 6 24 37 47 61 7 7 10 15 7 17 -2 3 5 13
15 23 19 17 25 15 159 -59 76 -41 150 -80 163 -86 13 -5 31 -14 39 -19 81 -48
267 -112 341 -116 61 -4 85 9 92 53 5 36 14 37 71 8 47 -24 65 -27 145 -27 50
0 101 3 113 5 13 3 46 8 73 11 28 3 70 11 95 16 25 6 55 13 68 15 55 11 174
56 244 94 107 56 294 122 408 144 48 8 225 58 242 67 10 5 18 7 18 5 0 -3 44
10 97 29 53 19 104 35 113 35 9 0 21 5 28 12 6 6 18 13 25 14 7 1 60 21 118
44 57 24 110 43 117 43 6 0 12 4 12 9 0 4 4 8 9 8 5 0 26 8 47 17 22 9 41 17
44 18 14 5 136 63 262 126 480 239 683 384 893 634 28 33 52 62 55 65 3 3 24
28 45 55 22 28 42 52 45 55 13 11 100 129 100 134 0 3 8 15 18 26 35 42 52
116 47 213 -2 51 -6 103 -10 117 -3 14 -8 41 -11 60 -9 56 -52 220 -74 285
-46 133 -195 399 -262 469 -7 8 -29 33 -48 57 -81 101 -333 340 -474 449 -10
8 -26 22 -35 30 -9 8 -33 27 -53 42 -20 15 -42 33 -50 40 -7 7 -29 26 -48 42
-125 102 -260 233 -260 250 1 35 103 197 164 262 6 6 23 27 38 46 15 19 40 48
55 64 15 16 64 70 108 118 44 49 94 104 110 122 55 60 113 129 165 194 28 36
58 73 66 83 9 10 32 42 52 70 20 29 40 54 44 55 5 2 8 8 8 14 0 5 13 28 29 51
45 67 132 244 147 302 1 6 9 37 18 70 14 50 30 173 28 210 -3 45 -11 125 -16
145 -3 14 -8 39 -11 55 -6 29 -18 66 -35 110 -45 115 -69 165 -104 218 -43 65
-183 211 -275 287 -30 25 -71 59 -90 75 -20 17 -56 46 -81 65 -25 19 -47 37
-50 40 -3 3 -36 30 -75 60 -38 30 -75 59 -82 65 -196 163 -353 244 -503 260
-54 6 -93 11 -175 21 -42 5 -134 31 -250 69 -73 25 -121 36 -127 30z m232
-1340 c0 -3 -12 -17 -27 -31 -16 -14 -89 -84 -164 -155 -179 -170 -194 -184
-275 -255 -63 -56 -185 -159 -209 -176 -5 -4 -26 -20 -45 -35 -111 -90 -221
-162 -370 -244 -63 -34 -117 -65 -120 -68 -3 -3 -25 -16 -50 -27 l-46 -22 -60
57 c-33 31 -97 90 -144 131 -46 41 -91 81 -100 89 -33 32 -249 199 -310 241
-92 63 -95 66 -68 82 13 7 25 13 28 13 7 2 46 18 95 40 22 10 42 19 45 20 3 0
27 11 54 23 27 12 51 22 53 22 3 0 19 7 36 15 55 25 275 95 377 119 8 2 40 11
70 20 30 8 71 18 90 22 38 6 43 7 80 18 14 4 39 9 55 11 17 2 30 4 30 5 0 2
15 5 60 13 17 3 41 8 55 11 13 3 42 8 65 11 22 3 47 8 55 10 13 3 66 11 140
20 14 2 57 6 95 10 39 4 71 8 73 10 6 5 432 6 432 0z m-131 -2570 c18 -4 42
-8 54 -10 263 -42 586 -153 660 -227 16 -15 30 -40 31 -55 6 -54 -23 -91 -174
-223 -41 -36 -116 -105 -168 -155 -94 -90 -191 -162 -286 -211 -28 -14 -66
-35 -83 -46 -18 -11 -33 -16 -33 -11 0 4 -4 4 -8 -2 -9 -13 -78 -47 -317 -155
-53 -24 -371 -157 -395 -165 -3 -1 -18 -7 -35 -14 -16 -6 -50 -19 -75 -28 -25
-9 -50 -20 -56 -25 -6 -4 -19 -9 -30 -11 -10 -2 -32 -10 -49 -16 -16 -7 -34
-14 -40 -15 -5 -2 -23 -8 -40 -15 -42 -18 -380 -130 -407 -135 -13 -3 -48 -12
-78 -21 -30 -8 -68 -17 -85 -20 -16 -3 -43 -8 -58 -11 -50 -10 -73 -11 -95 -3
-19 7 -21 14 -18 48 2 21 6 43 9 48 3 4 8 24 11 43 17 102 207 711 251 807 8
17 15 34 15 37 0 9 72 190 98 248 36 78 65 99 208 145 126 41 200 63 238 70
10 2 61 14 115 28 87 22 140 34 181 40 8 1 40 7 70 13 84 18 102 22 140 27 19
3 45 7 58 10 13 2 51 7 85 10 34 4 63 8 65 10 6 5 208 -3 241 -10z"/>
</g>
</svg>
